<?xml version="1.0" standalone="no"?>
<!DOCTYPE svg PUBLIC "-//W3C//DTD SVG 20010904//EN"
 "http://www.w3.org/TR/2001/REC-SVG-20010904/DTD/svg10.dtd">
<svg version="1.0" xmlns="http://www.w3.org/2000/svg"
 width="317.000000pt" height="317.000000pt" viewBox="0 0 317.000000 317.000000"
 preserveAspectRatio="xMidYMid meet">
<metadata>
Created by potrace 1.11, written by Peter Selinger 2001-2013
</metadata>
<g transform="translate(0.000000,317.000000) scale(0.100000,-0.100000)"
fill="#000000" stroke="none">
<path d="M1410 3128 c-19 -5 -52 -14 -72 -19 -31 -8 -39 -15 -48 -47 -24 -89
-7 -210 45 -312 38 -76 152 -186 240 -232 126 -65 201 -83 355 -83 81 0 156 5
188 13 l52 14 0 57 c0 32 -9 93 -20 135 -58 229 -238 408 -466 466 -83 21
-213 25 -274 8z"/>
<path d="M1178 3030 c-130 -86 -240 -253 -272 -412 -20 -98 -21 -197 -2 -204
20 -8 134 33 188 67 84 54 147 134 173 223 10 34 9 47 -8 90 -14 34 -22 87
-26 159 l-6 108 -47 -31z"/>
<path d="M790 3036 c-84 -18 -148 -55 -215 -122 -60 -60 -126 -158 -129 -191
-2 -28 81 -44 209 -41 95 3 118 8 170 31 56 26 62 32 93 97 19 38 60 101 93
139 32 39 55 72 50 75 -13 9 -135 26 -176 25 -22 0 -65 -6 -95 -13z"/>
<path d="M2115 3044 c-11 -2 -44 -9 -74 -15 l-53 -11 44 -46 c50 -52 93 -114
127 -180 19 -37 33 -49 89 -75 60 -29 78 -32 177 -35 128 -3 211 13 209 41 -6
66 -154 235 -244 279 -81 38 -199 57 -275 42z"/>
<path d="M1285 2613 c-44 -85 -120 -155 -217 -202 -46 -22 -100 -43 -122 -47
l-38 -7 6 -41 c10 -61 78 -193 132 -256 128 -150 298 -230 489 -230 304 0 573
231 629 541 l6 36 -67 -15 c-86 -18 -302 -11 -388 13 -135 37 -282 129 -357
223 -18 22 -35 41 -38 41 -3 1 -18 -25 -35 -56z"/>
<path d="M1915 1893 c-35 -27 -158 -81 -221 -97 -79 -20 -235 -21 -323 0 -38
8 -103 32 -144 54 l-76 38 -6 -56 c-11 -96 -25 -163 -56 -253 -22 -66 -149
-656 -186 -866 l-6 -33 645 0 c355 0 647 2 650 5 9 9 -160 819 -186 886 -29
78 -56 211 -56 280 0 55 -7 63 -35 42z"/>
<path d="M840 1755 c-129 -79 -247 -157 -262 -174 -23 -26 -28 -40 -28 -86 0
-49 4 -60 33 -91 28 -31 42 -37 84 -41 49 -5 55 -3 197 82 80 48 150 92 154
99 25 31 81 273 82 349 0 17 -37 -3 -260 -138z"/>
<path d="M2004 1824 c9 -86 29 -174 56 -245 20 -53 22 -55 153 -134 124 -75
135 -79 190 -80 55 0 61 2 93 37 30 33 34 44 34 92 0 44 -5 60 -25 85 -22 25
-444 290 -493 309 -13 5 -14 -4 -8 -64z"/>
<path d="M1054 616 c-3 -8 -4 -110 -2 -228 3 -182 6 -218 21 -246 37 -67 121
-91 184 -52 65 39 68 49 71 307 l3 233 -136 0 c-107 0 -137 -3 -141 -14z"/>
<path d="M1754 616 c-3 -8 -4 -113 -2 -233 3 -191 5 -222 21 -246 43 -66 127
-85 188 -44 61 41 64 57 64 307 l0 225 -133 3 c-108 2 -133 0 -138 -12z"/>
</g>
</svg>
